<svg xmlns="http://www.w3.org/2000/svg" version="1.1" xmlns:xlink="http://www.w3.org/1999/xlink" xmlns:svgjs="http://svgjs.dev/svgjs" width="1000" height="1000" viewBox="0 0 1000 1000"><rect width="1000" height="1000" fill="#ffffff"></rect><g transform="matrix(0.7,0,0,0.7,149.69944373715225,214.981398176759)"><svg viewBox="0 0 303 247" data-background-color="#ffffff" preserveAspectRatio="xMidYMid meet" height="815" width="1000" xmlns="http://www.w3.org/2000/svg" xmlns:xlink="http://www.w3.org/1999/xlink"><g id="tight-bounds" transform="matrix(1,0,0,1,0.130353322468153,-0.09997365579206985)"><svg viewBox="0 0 302.7395487523277 247.2" height="247.2" width="302.7395487523277"><g><svg viewBox="0 0 302.7395487523277 247.2" height="247.2" width="302.7395487523277"><g><svg viewBox="0 0 302.7395487523277 247.2" height="247.2" width="302.7395487523277"><g id="textblocktransform"><svg viewBox="0 0 302.7395487523277 247.2" height="247.2" width="302.7395487523277" id="textblock"><g><svg viewBox="0 0 302.7395487523277 247.2" height="247.2" width="302.7395487523277"><path d="M302.031 53.02C300.608 27.36 296.551 20.227 296.551 20.227 284.098-6.202 268.556-0.506 254.594 3.292 229.943 3.446 205.393 9.091 180.799 12.119 129.178 12.581 77.116 4.986 25.751 23.717 20.926 29.464-5.006 24.846 0.858 56.304 2.395 69.39 8.003 83.913 7.832 95.922 8.601 98.026 9.668 93.202 10.124 96.23 11.718 104.39 14.322 100.541 16.457 105.365 13.482 118.246 15.617 128.971 17.652 140.21 14.066 143.135 9.469 141.749 7.405 151.449 7.192 158.479 6.039 157.145 4.772 156.837 3.847 156.632 1.983 157.402 2.296 159.608 3.363 167.152-1.22 171.514 1.655 178.904-0.323 186.91 3.022 193.838 2.566 202.511 2.509 204.255 2.822 205.744 3.32 206.154 5.526 208.361 2.31 212.672 2.651 217.342 25.281 249.262 49.832 227.195 73.017 241.872 79.037 231.608 74.511 245.516 76.916 243.36 78.795 240.846 80.161 251.263 82.282 245.362 82.609 243.668 82.111 239.665 83.278 240.435 83.89 240.846 84.431 240.743 84.516 238.382 84.645 234.841 83.52 237.048 83.221 235.201 86.452 225.861 85.655 248.081 88.687 247.158 88.544 244.438 87.662 240.538 89.469 241.051 91.263 237.151 91.32 233.918 92.914 242.693 92.971 244.592 93.255 245.926 93.711 246.85 98.692 237.305 103.645 250.237 108.868 245.926 112.07 241.205 115.145 248.492 118.39 246.696 119.528 245.259 120.681 242.693 121.777 247.004 135.198 247.928 149.502 244.079 162.226 247.158 196.227 241.41 232.562 249.518 268.414 241.923 276.868 238.998 285.649 234.841 293.89 231.506 293.89 231.506 300.565 222.371 300.565 181.316S301.988 145.393 302.202 112.703C302.415 80.013 303.411 78.679 301.988 53.02Z" opacity="1" fill="#ed2647" data-fill-palette-color="tertiary"></path><g transform="matrix(1,0,0,1,55.76832,26.230666666666668)"><svg width="191.20290875232772" viewBox="1.399999976158142 -35 35.14999771118164 35.79999923706055" height="194.73866666666666" data-palette-color="#ffffff"><path d="M14.7-35L14.7-32.25Q13.4-32.2 12.63-31.8 11.85-31.4 11.53-30.53 11.2-29.65 11.2-28.05L11.2-28.05 11.2-14.65Q11.2-11.65 11.78-9.43 12.35-7.2 13.45-5.7 14.55-4.2 16.18-3.45 17.8-2.7 19.95-2.7L19.95-2.7Q22.95-2.6 25.03-3.95 27.1-5.3 28.15-7.9 29.2-10.5 29.2-14.25L29.2-14.25 29.25-27.65Q29.25-28.9 29.3-30.05 29.35-31.2 29.45-31.85L29.45-31.85Q28.6-31.8 27.5-31.78 26.4-31.75 25.75-31.7L25.75-31.7 25.75-35 36.55-35 36.55-32.25Q35.2-32.2 34.43-31.78 33.65-31.35 33.35-30.3 33.05-29.25 33.05-27.3L33.05-27.3 33-15.1Q33-11.15 32.08-8.18 31.15-5.2 29.35-3.2 27.55-1.2 25-0.2 22.45 0.8 19.2 0.8L19.2 0.8Q15.05 0.8 12.28-0.35 9.5-1.5 7.88-3.68 6.25-5.85 5.58-8.83 4.9-11.8 4.9-15.5L4.9-15.5 4.9-26.95Q4.9-28.25 4.98-29.68 5.05-31.1 5.1-31.85L5.1-31.85Q4.25-31.8 3.15-31.78 2.05-31.75 1.4-31.7L1.4-31.7 1.4-35 14.7-35Z" opacity="1" transform="matrix(1,0,0,1,0,0)" fill="#ffffff" class="undefined-text-0" data-fill-palette-color="quaternary" id="text-0"></path></svg></g></svg></g></svg></g></svg></g><g></g></svg></g><defs></defs></svg><rect width="302.7395487523277" height="247.2" fill="none" stroke="none" visibility="hidden"></rect></g></svg></g></svg>